<svg height="512pt" viewBox="0 0 512 512" width="512pt" xmlns="http://www.w3.org/2000/svg"><path d="M159.602 512c-43.711 0-79.27-35.559-79.27-79.266 0-.359.004-.718.008-1.074-.36.004-.715.004-1.074.004C35.559 431.668 0 396.11 0 352.398c0-43.707 35.559-79.265 79.266-79.265 16.078 0 31.425 4.758 44.441 13.613L286.747 123.7c-8.852-13.012-13.61-28.36-13.61-44.433C273.133 35.559 308.69 0 352.398 0c43.711 0 79.27 35.559 79.27 79.266 0 .359-.004.718-.008 1.074.356-.004.715-.004 1.074-.004 43.707 0 79.266 35.559 79.266 79.266 0 43.707-35.559 79.265-79.266 79.265-16.078 0-31.425-4.762-44.445-13.617L225.254 388.293c8.851 13.016 13.613 28.363 13.613 44.441 0 43.707-35.558 79.266-79.265 79.266zm-47.106-93.742a49.11 49.11 0 00-2.16 14.476c0 27.164 22.098 49.266 49.266 49.266 27.164 0 49.265-22.102 49.265-49.266 0-13.152-5.125-25.523-14.437-34.832-5.856-5.855-5.856-15.355 0-21.21l182.261-182.27c5.856-5.86 15.36-5.852 21.211 0 9.317 9.312 21.684 14.445 34.832 14.445 27.164 0 49.266-22.101 49.266-49.27 0-27.163-22.102-49.265-49.266-49.265-4.945 0-9.82.727-14.48 2.164-11.496 3.531-22.29-7.254-18.75-18.75a49.235 49.235 0 002.164-14.48c0-27.164-22.102-49.266-49.27-49.266-27.164 0-49.265 22.102-49.265 49.266 0 13.148 5.129 25.515 14.437 34.824 5.86 5.855 5.852 15.36 0 21.21L135.31 317.57c-5.856 5.86-15.36 5.852-21.211 0-9.313-9.308-21.68-14.437-34.832-14.437-27.164 0-49.266 22.101-49.266 49.265 0 27.168 22.102 49.27 49.266 49.27 4.925 0 9.804-.73 14.5-2.172 12.422-3.805 21.992 8.176 18.73 18.762zm0 0"/></svg>