<svg xmlns="http://www.w3.org/2000/svg" viewBox="0 0 512 512"><path d="M512 260.333v-41.59l-67.451-84.41H298.794L271 101.207V83.333h86.63V0H241v101.208l-27.794 33.125H67.452L0 218.743v41.59h27.667V482H0v30h512v-30h-27.666V260.333H512zM271 30h56.63v23.333H271V30zM30 229.257l51.882-64.924h106.153l-55.377 66H30v-1.076zM241 482h-34V377.667h34V482zm64 0h-34V377.667h34V482zm149.334 0H335V347.667H177V482H57.667V260.333h88.981L256 130.003l109.353 130.33h88.981V482zM482 230.333H379.343l-55.377-66h106.153L482 229.257v1.076z"/><path d="M101.67 309.33h30v42.667h-30zm.66 85.34h30v42.666h-30zm278-85.34h30v42.667h-30zm-.66 85.34h30v42.666h-30zM256 209c-25.916 0-47 21.084-47 47s21.084 47 47 47 47-21.084 47-47-21.084-47-47-47zm0 64c-9.374 0-17-7.626-17-17 0-9.374 7.626-17 17-17 9.374 0 17 7.626 17 17 0 9.374-7.626 17-17 17z"/></svg>